#!OML:ASF F:\VICON\USERDATA\INSTALL\rory3\rory3.ASF
:FULLY-SPECIFIED
:DEGREES
1061
root 2.90374 16.4606 -22.2776 23.2973 -4.36651 -365.903
lowerback -13.4921 3.08577 6.38067
upperback -12.7918 3.52747 -0.209902
thorax -5.74337 1.28159 -3.48417
lowerneck -7.51064 -0.556084 3.6392
upperneck -24.8872 -1.13949 -1.80164
head -6.40527 -0.742745 -1.17217
rclavicle -7.05686e-015 -1.59028e-014
rhumerus -52.5747 -12.9578 -43.7339
rradius 40.9965
rwrist -7.61117
rhand -8.90908 19.4019
rfingers 7.12502
rthumb 17.034 -9.87124
lclavicle -7.05686e-015 -1.59028e-014
lhumerus -63.1605 -4.8539 48.9627
lradius 50.8313
lwrist -24.4896
lhand -4.63388 12.7077
lfingers 7.12502
lthumb 21.1452 41.5746
rfemur -27.7842 10.0865 33.6737
rtibia 28.6293
rfoot -34.2993 -28.7132
rtoes 30.0559
lfemur 105.643 167.713 157.529
ltibia 37.2252
lfoot 14.3708 43.8884
ltoes 7.07692
1062
root 2.90619 16.459 -22.2929 23.252 -4.45727 -365.86
lowerback -12.9674 3.04103 6.30614
upperback -12.7028 3.51561 -0.152605
thorax -5.93202 1.27934 -3.40502
lowerneck -7.15212 -0.911274 2.92214
upperneck -24.4283 -1.47604 -1.11993
head -6.31279 -0.884371 -0.815229
rclavicle -1.41634e-014 -3.65764e-014
rhumerus -52.2389 -12.9937 -45.2645
rradius 42.3035
rwrist -9.09512
rhand -8.39328 19.0622
rfingers 7.12502
rthumb 17.5304 -10.1674
lclavicle -1.41634e-014 -3.65764e-014
lhumerus -63.3456 -5.12388 50.721
lradius 52.8769
lwrist -22.2828
lhand -5.68836 12.6649
lfingers 7.12502
lthumb 20.1319 41.6417
rfemur -27.8308 9.95335 33.6398
rtibia 28.7104
rfoot -34.2045 -28.5295
rtoes 30.0868
lfemur 105.606 167.454 157.266
ltibia 37.2524
lfoot 14.0592 43.7306
ltoes 8.39875
1063
root 2.91498 16.4583 -22.3019 23.2648 -4.54623 -365.998
lowerback -12.4888 3.0881 6.55814
upperback -12.665 3.59699 -0.149572
thorax -6.13186 1.29487 -3.55646
lowerneck -6.68386 -1.3129 2.43358
upperneck -24.074 -1.9209 -0.647141
head -6.27329 -1.08583 -0.561798
rclavicle 8.49804e-015 1.03368e-014
rhumerus -52.0801 -13.06 -46.82
rradius 43.6649
rwrist -10.2274
rhand -7.72521 18.5407
rfingers 7.12502
rthumb 18.1732 -10.6303
lclavicle 8.49804e-015 1.03368e-014
lhumerus -63.2456 -5.18405 52.0138
lradius 54.3255
lwrist -20.8576
lhand -6.52566 12.1876
lfingers 7.12502
lthumb 19.327 41.2471
rfemur -27.8583 9.72239 33.7852
rtibia 28.7573
rfoot -34.0204 -28.2654
rtoes 29.9472
lfemur 105.408 166.917 156.857
ltibia 37.3292
lfoot 14.9678 43.2497
ltoes 7.76736
1064
root 2.92548 16.4532 -22.3092 23.3596 -4.55967 -366.221
lowerback -12.359 3.15122 6.8146
upperback -12.4992 3.67044 -0.0422427
thorax -6.00608 1.32565 -3.58021
lowerneck -6.12673 -1.72841 1.84681
upperneck -23.8603 -2.38995 -0.17798
head -6.28882 -1.29249 -0.290526
rclavicle 1.21756e-014 2.94201e-014
rhumerus -51.8036 -13.1739 -48.2319
rradius 45.0466
rwrist -11.2672
rhand -6.77862 17.9638
rfingers 7.12502
rthumb 19.0837 -11.12
lclavicle 1.21756e-014 2.94201e-014
lhumerus -62.9569 -5.11617 53.5426
lradius 55.7378
lwrist -19.5282
lhand -7.19831 11.8024
lfingers 7.12502
lthumb 18.6801 40.9254
rfemur -27.9841 9.41 34.0338
rtibia 28.8432
rfoot -34.1103 -27.6977
rtoes 30.6228
lfemur 105.038 166.27 156.257
ltibia 37.3806
lfoot 16.7536 42.3157
ltoes 6.6863
1065
root 2.93617 16.4496 -22.3137 23.504 -4.56251 -366.273
lowerback -12.3193 3.15967 6.94156
upperback -12.3527 3.67233 0.0346673
thorax -5.86342 1.32905 -3.56657
lowerneck -5.45428 -2.13394 0.899269
upperneck -23.718 -2.7753 0.716792
head -6.32898 -1.45877 0.178409
rclavicle -6.80837e-015 -1.90833e-014
rhumerus -50.9143 -13.7703 -49.5914
rradius 45.6839
rwrist -11.5116
rhand -5.64813 17.3542
rfingers 7.12502
rthumb 20.1706 -11.6186
lclavicle -6.80837e-015 -1.90833e-014
lhumerus -62.6678 -5.00866 55.1497
lradius 57.8082
lwrist -16.6809
lhand -6.56469 12.519
lfingers 7.12502
lthumb 19.2894 41.5823
rfemur -28.2039 8.98861 34.1275
rtibia 28.9227
rfoot -33.9064 -27.3678
rtoes 30.3936
lfemur 104.608 165.69 155.402
ltibia 37.4436
lfoot 18.1735 41.4297
ltoes 5.95508
1066
root 2.9393 16.4472 -22.3296 23.4794 -4.77012 -365.94
lowerback -11.6981 3.05258 6.50538
upperback -12.4433 3.61896 0.0517633
thorax -6.32388 1.31722 -3.34384
lowerneck -4.61374 -2.54201 0.138487
upperneck -23.2744 -3.21644 1.39952
head -6.29786 -1.65658 0.549954
rclavicle -1.98536e-014 -1.13307e-014
rhumerus -50.4653 -13.7472 -51.0314
rradius 46.589
rwrist -11.8888
rhand -4.56293 16.7624
rfingers 7.12502
rthumb 21.2133 -12.0969
lclavicle -1.98536e-014 -1.13307e-014
lhumerus -62.6457 -4.92233 56.539
lradius 59.3036
lwrist -15.1107
lhand -6.90232 11.8373
lfingers 7.12502
lthumb 18.9648 40.9327
rfemur -28.388 9.43542 33.6421
rtibia 29.0933
rfoot -33.8816 -27.867
rtoes 30.0575
lfemur 104.606 165.621 154.956
ltibia 37.4157
lfoot 18.3304 41.5053
ltoes 6.21666
1067
root 2.94665 16.4475 -22.3309 23.5467 -4.75057 -366.035
lowerback -11.5814 3.00258 6.5255
upperback -12.3796 3.5667 0.270903
thorax -6.33433 1.30048 -3.13065
lowerneck -3.83942 -2.96375 -0.685631
upperneck -22.7759 -3.72056 1.93202
head -6.23341 -1.87315 0.884916
rclavicle 3.97321e-014 3.33958e-014
rhumerus -49.9916 -13.5457 -52.4207
rradius 47.6015
rwrist -12.0859
rhand -3.76806 16.1186
rfingers 7.12502
rthumb 21.9767 -12.653
lclavicle 3.97321e-014 3.33958e-014
lhumerus -62.3499 -4.5008 57.8198
lradius 60.1731
lwrist -14.6523
lhand -7.33388 9.92364
lfingers 7.12502
lthumb 18.5497 39.0592
rfemur -28.5 9.42648 33.7138
rtibia 29.253
rfoot -33.9158 -27.7982
rtoes 29.6137
lfemur 104.459 165.383 154.733
ltibia 37.4197
lfoot 19.0349 41.0758
ltoes 5.69586
1068
root 2.95073 16.4458 -22.333 23.6275 -4.99132 -365.858
lowerback -11.3321 3.00558 6.2155
upperback -11.9368 3.59471 0.298635
thorax -5.98328 1.36011 -2.92726
lowerneck -6.22215 -3.45376 -1.43595
upperneck -20.8296 -4.26743 2.55562
head -5.18363 -2.11831 1.14898
rclavicle 2.48481e-014 2.87244e-014
rhumerus -48.6769 -14.2084 -53.9419
rradius 48.1949
rwrist -11.9261
rhand -2.87653 15.7666
rfingers 7.12502
rthumb 22.8325 -12.9019
lclavicle 2.48481e-014 2.87244e-014
lhumerus -60.9461 -3.75948 59.0619
lradius 60.9994
lwrist -13.567
lhand -7.13196 8.82007
lfingers 7.12502
lthumb 18.7439 37.937
rfemur -28.689 9.68235 33.3907
rtibia 29.417
rfoot -34.3567 -27.6155
rtoes 30.102
lfemur 104.204 164.773 153.727
ltibia 37.3857
lfoot 20.2336 40.2594
ltoes 3.81007
1069
root 2.9569 16.4401 -22.3307 23.8321 -5.18492 -365.948
lowerback -11.6632 3.09191 6.19054
upperback -11.3278 3.66533 0.508647
thorax -5.13434 1.44556 -2.65353
lowerneck -7.48824 -3.97017 -2.68315
upperneck -19.6424 -4.79303 3.4333
head -4.54422 -2.33239 1.59003
rclavicle -2.83082e-014 -1.35671e-014
rhumerus -47.0009 -14.9612 -55.2145
rradius 48.4724
rwrist -11.5092
rhand -1.88409 15.558
rfingers 7.12502
rthumb 23.7846 -12.9899
lclavicle -2.83082e-014 -1.35671e-014
lhumerus -59.4957 -2.96949 60.9876
lradius 63.2366
lwrist -11.0865
lhand -5.41294 11.8628
lfingers 7.12502
lthumb 20.3966 40.8116
rfemur -28.9302 9.69475 33.4083
rtibia 29.5216
rfoot -34.4628 -27.4806
rtoes 30.0537
lfemur 103.745 164.096 152.919
ltibia 37.4027
lfoot 21.3567 39.6325
ltoes 2.76647
1070
root 2.96637 16.4405 -22.3277 24.0288 -5.16161 -366.062
lowerback -11.8274 3.03924 6.30504
upperback -11.1689 3.56937 0.640079
thorax -4.8827 1.40537 -2.57461
lowerneck -7.38576 -4.3619 -3.21896
upperneck -18.4828 -5.27347 3.8665
head -4.68191 -2.54399 1.96588
rclavicle 2.88145e-014 2.22142e-014
rhumerus -46.1051 -14.8515 -56.8159
rradius 48.8872
rwrist -11.0934
rhand -1.16913 15.1204
rfingers 7.12502
rthumb 24.4701 -13.3366
lclavicle 2.88145e-014 2.22142e-014
lhumerus -58.8319 -2.43817 62.3039
lradius 64.537
lwrist -10.2623
lhand -5.03011 12.3521
lfingers 7.12502
lthumb 20.7645 41.2611
rfemur -29.1135 9.4195 33.5374
rtibia 29.5525
rfoot -34.4719 -27.2429
rtoes 29.9389
lfemur 103.287 163.64 152.224
ltibia 37.4799
lfoot 21.9904 39.0581
ltoes 3.85189
1071
root 2.97212 16.4385 -22.3324 24.1541 -5.32771 -365.969
lowerback -11.743 2.97073 6.09797
upperback -11.1928 3.50158 0.665891
thorax -4.96964 1.38227 -2.44313
lowerneck -6.13478 -4.72484 -3.4401
upperneck -18.7774 -5.71779 4.41979
head -4.40584 -2.79999 2.04306
rclavicle 4.59379e-015 -5.36719e-015
rhumerus -45.4964 -14.4968 -58.4459
rradius 49.1736
rwrist -10.4275
rhand -0.603423 14.5294
rfingers 7.12502
rthumb 25.0123 -13.8532
lclavicle 4.59379e-015 -5.36719e-015
lhumerus -58.489 -2.25789 63.5197
lradius 65.8297
lwrist -9.43249
lhand -4.32873 12.991
lfingers 7.12502
lthumb 21.4383 41.8249
rfemur -29.3123 9.71412 33.3132
rtibia 29.6058
rfoot -34.4711 -27.4507
rtoes 30.0775
lfemur 102.919 163.142 151.333
ltibia 37.49
lfoot 22.5472 38.4039
ltoes 4.63673
1072
root 2.98588 16.4422 -22.3183 24.4326 -5.36399 -366.229
lowerback -11.9437 2.94147 6.3957
upperback -10.6001 3.40162 0.889011
thorax -4.22209 1.35491 -2.35868
lowerneck -8.73546 -5.20783 -4.14387
upperneck -16.7919 -6.22046 4.94353
head -3.70884 -2.99815 2.38501
rclavicle 3.06835e-015 1.72694e-015
rhumerus -43.3147 -14.828 -60.15
rradius 48.9075
rwrist -9.31592
rhand 0.164685 14.5683
rfingers 7.12502
rthumb 25.7481 -13.7097
lclavicle 3.06835e-015 1.72694e-015
lhumerus -56.7995 -1.15623 64.7908
lradius 66.5473
lwrist -8.57897
lhand -3.91895 12.6988
lfingers 7.12502
lthumb 21.8318 41.4873
rfemur -29.5161 9.36672 33.5826
rtibia 29.6084
rfoot -34.1062 -27.3629
rtoes 29.4688
lfemur 102.467 162.717 150.928
ltibia 37.541
lfoot 22.5049 37.959
ltoes 5.82301
1073
root 2.98399 16.4387 -22.3347 24.4506 -5.77843 -365.918
lowerback -11.26 2.83544 5.73717
upperback -10.735 3.3734 0.936781
thorax -4.76818 1.36467 -1.9807
lowerneck -8.23775 -5.58294 -4.70718
upperneck -16.0919 -6.67764 5.46129
head -3.48677 -3.2186 2.64591
rclavicle -2.744e-014 -1.89591e-014
rhumerus -42.6687 -14.3624 -61.6167
rradius 48.9095
rwrist -8.51758
rhand 1.30003 14.9676
rfingers 7.12502
rthumb 26.835 -13.1483
lclavicle -2.744e-014 -1.89591e-014
lhumerus -56.3458 -0.892443 66.0888
lradius 67.2007
lwrist -7.60819
lhand -4.11195 12.0296
lfingers 7.12502
lthumb 21.6465 40.8396
rfemur -29.6906 10.5307 32.9375
rtibia 29.6789
rfoot -34.5645 -28.0266
rtoes 29.9376
lfemur 102.507 162.749 150.851
ltibia 37.4831
lfoot 21.8052 37.8672
ltoes 7.87952
1074
root 2.99592 16.4415 -22.3216 24.5972 -5.74808 -365.824
lowerback -11.5779 2.7175 5.74213
upperback -10.4115 3.17674 0.93602
thorax -4.25652 1.28417 -1.97889
lowerneck -8.53305 -5.9904 -5.1143
upperneck -15.3006 -7.14571 6.09106
head -3.09166 -3.44991 2.88012
rclavicle -2.16815e-014 2.5842e-015
rhumerus -41.4767 -14.0388 -63.4259
rradius 48.8846
rwrist -7.81035
rhand 2.22653 15.0359
rfingers 7.12502
rthumb 27.7212 -12.9406
lclavicle -2.16815e-014 2.5842e-015
lhumerus -55.434 -0.551741 67.2889
lradius 68.4962
lwrist -7.347
lhand -3.11449 13.3238
lfingers 7.12502
lthumb 22.6041 42.0204
rfemur -29.8032 10.6463 32.7388
rtibia 29.6925
rfoot -35.0002 -27.9483
rtoes 30.2697
lfemur 102.232 162.567 150.184
ltibia 37.5233
lfoot 22.945 37.5478
ltoes 5.96339
